# xmcd
#
# Track frame offsets:
#	150
#	18887
#	34013
#	51156
#	65354
#	78942
#	95042
#	108901
#
# Disc length: 1701
#
# Revision: 1
# Processed by: cddbd v1.5.1PL0 Copyright (c) Steve Scherf et al.
# Submitted via: VisiTrax 2.9.5.180 - For more info visit www.synapsa.com
# Normalized: r0:DSETVAR1
#
DISCID=5a06a308
DTITLE=Various Artist - CDX 248 September 2000
DYEAR=2000
DGENRE=
TTITLE0=Glenda Lynn/Dan Seals - I always dream of Texas
TTITLE1=Marshall Dyllon - Live it up
TTITLE2=John Anderson - Nobody's got it all
TTITLE3=Rascal Flatts - This everyday love
TTITLE4=Dwight Yoakam - What do you know about love
TTITLE5=Dixie Chicks - Without you
TTITLE6=Sonny Marshall - Sally in Dallas
TTITLE7=Willie P Richardson - Crematin' Rufus
EXTD=
EXTT0=
EXTT1=
EXTT2=
EXTT3=
EXTT4=
EXTT5=
EXTT6=
EXTT7=
PLAYORDER=
